<?xml version="1.0" encoding="UTF-8" standalone="no"?>
<!DOCTYPE svg PUBLIC "-//W3C//DTD SVG 1.1//EN" "http://www.w3.org/Graphics/SVG/1.1/DTD/svg11.dtd">
<svg width="100%" height="100%" viewBox="0 0 520 520" version="1.1" xmlns="http://www.w3.org/2000/svg" xmlns:xlink="http://www.w3.org/1999/xlink" xml:space="preserve" xmlns:serif="http://www.serif.com/" style="fill-rule:evenodd;clip-rule:evenodd;stroke-linejoin:round;stroke-miterlimit:2;">
    <g transform="matrix(1,0,0,1,0,-3.077631)">
        <g id="logo" transform="matrix(1,0,0,1,0,3.077631)">
            <rect x="0" y="0" width="520" height="520" style="fill:none;"/>
            <g transform="matrix(1,0,0,1,0,-3.077631)">
                <circle cx="260" cy="263.078" r="239.861" style="fill:rgb(61,90,224);"/>
            </g>
            <g transform="matrix(1.472877,0,0,1.51955,-204.704019,-73.839992)">
                <path d="M311.84,336.445C310.777,341.514 306.122,345.335 300.548,345.335C294.19,345.335 289.029,340.364 289.029,334.241L289.029,259.925L226.583,304.643C221.543,308.252 214.409,307.09 210.661,302.05C206.913,297.01 207.963,289.988 213.003,286.379L289.029,231.936L289.029,183.801L213.907,183.801C207.667,183.801 202.602,178.736 202.602,172.497C202.602,166.257 207.667,161.192 213.907,161.192L268.038,161.192L221.755,128.048C216.715,124.439 215.666,117.416 219.413,112.377C223.161,107.337 230.296,106.175 235.336,109.784L307.123,161.192L323.893,161.192L395.68,109.784C400.72,106.175 407.854,107.337 411.602,112.377C415.35,117.416 414.301,124.439 409.261,128.048L362.977,161.192L417.109,161.192C423.348,161.192 428.414,166.257 428.414,172.497C428.414,178.736 423.348,183.801 417.109,183.801L341.987,183.801L341.987,231.936L418.013,286.379C423.053,289.988 424.102,297.01 420.354,302.05C416.607,307.09 409.472,308.252 404.432,304.643L341.987,259.925L341.987,334.241C341.987,340.364 336.825,345.335 330.467,345.335C324.893,345.335 320.239,341.514 319.176,336.445L319.176,244.305L319.162,244.305C318.997,242.49 317.423,241.064 315.508,241.064C313.592,241.064 312.018,242.49 311.854,244.305L311.84,244.305L311.84,336.445ZM315.508,151.615C303.155,151.615 293.125,141.773 293.125,129.65C293.125,117.527 303.155,107.685 315.508,107.685C327.861,107.685 337.89,117.527 337.89,129.65C337.89,141.773 327.861,151.615 315.508,151.615Z" style="fill:rgb(246,248,255);"/>
            </g>
        </g>
    </g>
</svg>
