<?xml version="1.0" encoding="UTF-8" standalone="no"?>
<!DOCTYPE svg PUBLIC "-//W3C//DTD SVG 1.1//EN" "http://www.w3.org/Graphics/SVG/1.1/DTD/svg11.dtd">
<svg width="100%" height="100%" viewBox="0 0 520 520" version="1.1" xmlns="http://www.w3.org/2000/svg" xmlns:xlink="http://www.w3.org/1999/xlink" xml:space="preserve" xmlns:serif="http://www.serif.com/" style="fill-rule:evenodd;clip-rule:evenodd;stroke-linejoin:round;stroke-miterlimit:2;">
    <g transform="matrix(1,0,0,1,0,-3.077631)">
        <g id="logo-2" transform="matrix(1,0,0,1,0,3.077631)">
            <rect x="0" y="0" width="520" height="520" style="fill:none;"/>
            <g transform="matrix(1,0,0,1,0,-3.077631)">
                <path d="M260,23.216C392.383,23.216 499.861,130.695 499.861,263.078C499.861,395.461 392.383,502.939 260,502.939C127.617,502.939 20.139,395.461 20.139,263.078C20.139,130.695 127.617,23.216 260,23.216ZM260,159.624C278.195,159.624 292.967,144.668 292.967,126.247C292.967,107.826 278.195,92.871 260,92.871C241.805,92.871 227.033,107.826 227.033,126.247C227.033,144.668 241.805,159.624 260,159.624ZM254.598,440.483L254.598,300.472L254.618,300.472C254.86,297.713 257.179,295.546 260,295.546C262.821,295.546 265.14,297.713 265.382,300.472L265.402,300.472L265.402,440.483C266.968,448.185 273.824,453.991 282.034,453.991C291.398,453.991 299.001,446.437 299.001,437.133L299.001,324.207L390.975,392.157C398.398,397.642 408.906,395.877 414.426,388.218C419.946,380.56 418.401,369.889 410.978,364.405L299.001,281.676L299.001,208.533L409.646,208.533C418.836,208.533 426.296,200.836 426.296,191.355C426.296,181.874 418.836,174.177 409.646,174.177L329.917,174.177L398.087,123.813C405.51,118.328 407.055,107.658 401.535,99.999C396.015,92.341 385.507,90.576 378.084,96.06L272.35,174.177L247.65,174.177L141.916,96.06C134.493,90.576 123.985,92.341 118.465,99.999C112.945,107.658 114.49,118.328 121.913,123.813L190.083,174.177L110.354,174.177C101.164,174.177 93.704,181.874 93.704,191.355C93.704,200.836 101.164,208.533 110.354,208.533L220.999,208.533L220.999,281.676L109.022,364.405C101.599,369.889 100.054,380.56 105.574,388.218C111.094,395.877 121.602,397.642 129.025,392.157L220.999,324.207L220.999,437.133C220.999,446.437 228.602,453.991 237.966,453.991C246.176,453.991 253.032,448.185 254.598,440.483Z" style="fill:rgb(194,90,44);"/>
            </g>
        </g>
    </g>
</svg>
